
        <svg xmlns="http://www.w3.org/2000/svg" xmlns:xlink="http://www.w3.org/1999/xlink" version="1.1" width="3171.4285714285716" height="2592.6766811082252" viewBox="0 0 3171.4285714285716 2592.6766811082252">
			
			<g transform="scale(8.571428571428571) translate(10, 10)">
				<defs id="SvgjsDefs2259"/><g id="SvgjsG2260" featureKey="Wg4LIr-0" transform="matrix(12.050078499038975,0,0,12.050078499038975,94.38497415191823,-75.67448975624666)" fill="#fff"><path d="M5.24 14.7 l-2.48 0 l3.92 -8.42 l0 0.02 l0 -0.02 l3.92 8.42 l-2.46 0 l0.92 2.04 l2.5 0 l1.52 3.26 l-2.56 0 l-1.46 -3.26 l-4.76 0 l-1.44 3.26 l-2.56 0 l1.5 -3.26 l2.5 0 z M5.24 14.7 l2.9 0 l-1.46 -3.2 z"/></g><g id="SvgjsG2261" featureKey="qafomr-0" transform="matrix(4.243452785584515,0,0,4.243452785584515,-1.6973811395267557,159.53928530992889)" fill="#fff"><path d="M0.4 20 l1.14 -5.6 l4.28 0 l-0.86 -4.28 l-0.68 3.44 l-2.58 0 l1.52 -7.56 l3.48 0 l2.2 10.92 l-5.3 0 l-0.62 3.08 l-2.58 0 z M6.96 20 l-0.46 -2.24 l2.58 0 l0.44 2.24 l-2.56 0 z M16.2 20 l-5.48 -14 l2.72 0 l2.92 7.48 l0 -7.48 l2.52 0 l0 14 l-2.68 0 z M10.76 20 l0 -11.6 l2.52 6.42 l0 5.18 l-2.52 0 z M20.08 20 l1.14 -5.6 l4.28 0 l-0.86 -4.28 l-0.68 3.44 l-2.58 0 l1.52 -7.56 l3.48 0 l2.2 10.92 l-5.3 0 l-0.62 3.08 l-2.58 0 z M26.64 20 l-0.46 -2.24 l2.58 0 l0.44 2.24 l-2.56 0 z M33.06 20 l0 -10.64 l2.52 0 l0 10.64 l-2.52 0 z M30.4 8.52 l0 -2.52 l7.84 0 l0 2.52 l-7.84 0 z M44.4 20 l0 -2.52 l0.8 0 l0.38 -0.38 l0 -8.2 l-0.38 -0.38 l-0.8 0 l0 -2.52 l1.84 0 l1.86 1.86 l0 10.28 l-1.86 1.86 l-1.84 0 z M41.7 20 l-1.86 -1.86 l0 -10.28 l1.86 -1.86 l1.84 0 l0 2.52 l-0.8 0 l-0.38 0.38 l0 8.2 l0.38 0.38 l0.8 0 l0 2.52 l-1.84 0 z M53.5 15.66 l-3.8 -9.66 l2.7 0 l2.1 5.3 l2.08 -5.3 l2.7 0 l-3.8 9.66 l-1.98 0 z M49.74 20 l0 -11.62 l2.52 6.42 l0 5.2 l-2.52 0 z M56.74 20 l0 -5.2 l2.52 -6.42 l0 11.62 l-2.52 0 z M60.88 12.58 l0 -6.58 l2.52 0 l0 6.58 l-2.52 0 z M60.88 20 l0 -6.58 l2.52 0 l0 6.58 l-2.52 0 z M69.2 20 l0 -2.52 l0.46 0 l0.38 -0.38 l0 -7.74 l2.52 0 l0 8.78 l-1.86 1.86 l-1.5 0 z M66.86 20 l-1.86 -1.86 l0 -2.62 l2.52 0 l0 1.58 l0.38 0.38 l0.46 0 l0 2.52 l-1.5 0 z M68.36 8.52 l0 -2.52 l4.2 0 l0 2.52 l-4.2 0 z M73.76 20 l1.14 -5.6 l4.28 0 l-0.86 -4.28 l-0.68 3.44 l-2.58 0 l1.52 -7.56 l3.48 0 l2.2 10.92 l-5.3 0 l-0.62 3.08 l-2.58 0 z M80.32 20 l-0.46 -2.24 l2.58 0 l0.44 2.24 l-2.56 0 z"/></g><g id="SvgjsG2262" featureKey="sloganFeature-0" transform="matrix(1.3199246336081936,0,0,1.3199246336081936,26.944060277378718,256.08045345712907)" fill="#fff"><path d="M3.46 20 l0 -10.64 l2.52 0 l0 10.64 l-2.52 0 z M0.8 8.52 l0 -2.52 l7.84 0 l0 2.52 l-7.84 0 z M18.735 20 l-1.36 -5.18 l-0.98 0 l0 -2.52 l1.58 0 l0.38 -0.38 l0 -3.02 l-0.38 -0.38 l-1.58 0 l0 -2.52 l2.62 0 l1.86 1.86 l0 5.1 l-1.08 1.1 l1.54 5.94 l-2.6 0 z M13.035 20 l0 -4.34 l2.52 0 l0 4.34 l-2.52 0 z M13.035 14.82 l0 -8.82 l2.52 0 l0 8.82 l-2.52 0 z M25.13 20 l1.14 -5.6 l4.28 0 l-0.86 -4.28 l-0.68 3.44 l-2.58 0 l1.52 -7.56 l3.48 0 l2.2 10.92 l-5.3 0 l-0.62 3.08 l-2.58 0 z M31.69 20 l-0.46 -2.24 l2.58 0 l0.44 2.24 l-2.56 0 z M38.245 12.58 l0 -6.58 l2.52 0 l0 6.58 l-2.52 0 z M38.245 20 l0 -6.58 l2.52 0 l0 6.58 l-2.52 0 z M50.64 20 l-5.48 -14 l2.72 0 l2.92 7.48 l0 -7.48 l2.52 0 l0 14 l-2.68 0 z M45.2 20 l0 -11.6 l2.52 6.42 l0 5.18 l-2.52 0 z M57.715 12.58 l0 -6.58 l2.52 0 l0 6.58 l-2.52 0 z M57.715 20 l0 -6.58 l2.52 0 l0 6.58 l-2.52 0 z M70.11 20 l-5.48 -14 l2.72 0 l2.92 7.48 l0 -7.48 l2.52 0 l0 14 l-2.68 0 z M64.67 20 l0 -11.6 l2.52 6.42 l0 5.18 l-2.52 0 z M81.665 20 l0 -2.52 l0.74 0 l0.38 -0.38 l0 -2.84 l-1.26 0 l0 -2.52 l3.78 0 l0 6.4 l-1.86 1.86 l-1.78 0 z M79.045 20 l-1.86 -1.86 l0 -3.04 l2.52 0 l0 2 l0.38 0.38 l0.74 0 l0 2.52 l-1.78 0 z M77.185 14.26 l0 -6.4 l1.86 -1.86 l1.78 0 l0 2.52 l-0.74 0 l-0.38 0.38 l0 5.36 l-2.52 0 z M82.785 10.48 l0 -1.58 l-0.38 -0.38 l-0.74 0 l0 -2.52 l1.78 0 l1.86 1.86 l0 2.62 l-2.52 0 z M96.295 12.58 l0 -6.58 l2.52 0 l0 6.58 l-2.52 0 z M96.295 20 l0 -6.58 l2.52 0 l0 6.58 l-2.52 0 z M108.69 20 l-5.48 -14 l2.72 0 l2.92 7.48 l0 -7.48 l2.52 0 l0 14 l-2.68 0 z M103.25 20 l0 -11.6 l2.52 6.42 l0 5.18 l-2.52 0 z M118.425 20 l0 -10.64 l2.52 0 l0 10.64 l-2.52 0 z M115.765 8.52 l0 -2.52 l7.84 0 l0 2.52 l-7.84 0 z M128 14.26 l0 -8.26 l2.52 0 l0 8.26 l-2.52 0 z M128 20 l0 -4.9 l2.52 0 l0 4.9 l-2.52 0 z M131.36 20 l0 -2.52 l3.5 0 l0 2.52 l-3.5 0 z M131.36 14.26 l0 -2.52 l2.38 0 l0 2.52 l-2.38 0 z M131.36 8.52 l0 -2.52 l3.5 0 l0 2.52 l-3.5 0 z M139.255 16.64 l0 -10.64 l2.52 0 l0 10.64 l-2.52 0 z M139.255 20 l0 -2.52 l2.52 0 l0 2.52 l-2.52 0 z M142.615 20 l0 -2.52 l3.08 0 l0 2.52 l-3.08 0 z M150.09 16.64 l0 -10.64 l2.52 0 l0 10.64 l-2.52 0 z M150.09 20 l0 -2.52 l2.52 0 l0 2.52 l-2.52 0 z M153.45 20 l0 -2.52 l3.08 0 l0 2.52 l-3.08 0 z M160.925 12.58 l0 -6.58 l2.52 0 l0 6.58 l-2.52 0 z M160.925 20 l0 -6.58 l2.52 0 l0 6.58 l-2.52 0 z M172.32 20 l0 -2.52 l0.74 0 l0.38 -0.38 l0 -2.84 l-1.26 0 l0 -2.52 l3.78 0 l0 6.4 l-1.86 1.86 l-1.78 0 z M169.7 20 l-1.86 -1.86 l0 -3.04 l2.52 0 l0 2 l0.38 0.38 l0.74 0 l0 2.52 l-1.78 0 z M167.84 14.26 l0 -6.4 l1.86 -1.86 l1.78 0 l0 2.52 l-0.74 0 l-0.38 0.38 l0 5.36 l-2.52 0 z M173.44 10.48 l0 -1.58 l-0.38 -0.38 l-0.74 0 l0 -2.52 l1.78 0 l1.86 1.86 l0 2.62 l-2.52 0 z M180.355 14.26 l0 -8.26 l2.52 0 l0 8.26 l-2.52 0 z M180.355 20 l0 -4.9 l2.52 0 l0 4.9 l-2.52 0 z M183.715 20 l0 -2.52 l3.5 0 l0 2.52 l-3.5 0 z M183.715 14.26 l0 -2.52 l2.38 0 l0 2.52 l-2.38 0 z M183.715 8.52 l0 -2.52 l3.5 0 l0 2.52 l-3.5 0 z M197.09 20 l-5.48 -14 l2.72 0 l2.92 7.48 l0 -7.48 l2.52 0 l0 14 l-2.68 0 z M191.65 20 l0 -11.6 l2.52 6.42 l0 5.18 l-2.52 0 z M206.025 20 l-1.86 -1.86 l0 -10.28 l1.86 -1.86 l1.78 0 l0 2.52 l-0.74 0 l-0.38 0.38 l0 8.2 l0.38 0.38 l0.74 0 l0 2.52 l-1.78 0 z M208.645 20 l0 -2.52 l0.74 0 l0.38 -0.38 l0 -1.58 l2.52 0 l0 2.62 l-1.86 1.86 l-1.78 0 z M209.765 10.48 l0 -1.58 l-0.38 -0.38 l-0.74 0 l0 -2.52 l1.78 0 l1.86 1.86 l0 2.62 l-2.52 0 z M216.68 14.26 l0 -8.26 l2.52 0 l0 8.26 l-2.52 0 z M216.68 20 l0 -4.9 l2.52 0 l0 4.9 l-2.52 0 z M220.04 20 l0 -2.52 l3.5 0 l0 2.52 l-3.5 0 z M220.04 14.26 l0 -2.52 l2.38 0 l0 2.52 l-2.38 0 z M220.04 8.52 l0 -2.52 l3.5 0 l0 2.52 l-3.5 0 z"/></g>
			</g>
		</svg>
	