
        <svg xmlns="http://www.w3.org/2000/svg" xmlns:xlink="http://www.w3.org/1999/xlink" version="1.1" width="3171.4285714285716" 
        height="736.5200117100627" viewBox="0 0 3171.4285714285716 736.5200117100627">
			
			<g transform="scale(8.571428571428571) translate(10, 10)">
				<defs id="SvgjsDefs1001"></defs><g id="SvgjsG1007" featureKey="qafomr-0" transform="matrix(2.930622143294692,0,0,2.930622143294692,-4.186602462951188,-16.74641264666382)" fill="#fe1817"><path d="M5.142857 20 l-3.714286 0 l0 -14.285714 l3.714286 0 l0 14.285714 z M14.285714 7.857143 l0 3.485714 l-1.514286 1.514286 l1.514286 1.514286 l0 3.485714 l-2.142857 2.142857 l-6.428571 0 l0 -3.142857 l4.857143 0 l0 -2.428571 l-4.857143 0 l0 -3.142857 l4.857143 0 l0 -2.428571 l-4.857143 0 l0 -3.142857 l6.428571 0 z M20.857143 20 l-1.571429 0 l-2.142857 -2.142857 l0 -10 l2.142857 -2.142857 l1.571429 0 l0 14.285714 z M27.571429 5.714286 l2.142857 2.142857 l0 10 l-2.142857 2.142857 l-6.142857 0 l0 -3.142857 l4.571429 0 l0 -8 l-4.571429 0 l0 -3.142857 l6.142857 0 z M36.285714 20 l-3.714286 0 l0 -14.285714 l3.714286 0 l0 14.285714 z M43 5.714286 l2.142857 2.142857 l0 10 l-2.142857 2.142857 l-6.142857 0 l0 -3.142857 l4.571429 0 l0 -8 l-4.571429 0 l0 -3.142857 l6.142857 0 z M53.8 11.2 l-1.942857 3.571429 l-4.571429 -7.342857 l0 -1.714286 l3.285714 0 z M57.428572 5.714286 l3.285714 0 l0 1.714286 l-4.857143 7.857143 l0 4.714286 l-3.685714 0 l0 -4.742857 z M66.571428 20 l-1.571429 0 l-2.142857 -2.142857 l0 -10 l2.142857 -2.142857 l1.571429 0 l0 14.285714 z M72.857142 5.714286 l2.142857 2.142857 l0 2.142857 l-2.714286 0 l-1.142857 -1.142857 l-4 0 l0 -3.142857 l5.714286 0 z M71.142857 16.857143 l1.142857 -1.142857 l2.714286 0 l0 2.142857 l-2.142857 2.142857 l-5.714286 0 l0 -3.142857 l4 0 z M81.571428 20 l-1.571429 0 l-2.142857 -2.142857 l0 -10 l2.142857 -2.142857 l1.571429 0 l0 14.285714 z M88.285714 5.714286 l2.142857 2.142857 l0 10 l-2.142857 2.142857 l-6.142857 0 l0 -3.142857 l4.571429 0 l0 -8 l-4.571429 0 l0 -3.142857 l6.142857 0 z M97 20 l-3.714286 0 l0 -14.285714 l3.714286 0 l0 14.285714 z M103.714286 5.714286 l2.142857 2.142857 l0 10 l-2.142857 2.142857 l-6.142857 0 l0 -3.142857 l4.571429 0 l0 -8 l-4.571429 0 l0 -3.142857 l6.142857 0 z M112.428571 20 l-1.571429 0 l-2.142857 -2.142857 l0 -12.142857 l3.714286 0 l0 14.285714 z M113 5.714286 l7.857143 0 l0 3.142857 l-7.857143 0 l0 -3.142857 z M119.714285 11.285714 l0 3.142857 l-6.714286 0 l0 -3.142857 l6.714286 0 z M113 20 l0 -3.142857 l7.857143 0 l0 3.142857 l-7.857143 0 z"></path></g><g id="SvgjsG1008" featureKey="sloganFeature-0" transform="matrix(1.0358441645576235,0,0,1.0358441645576235,24.81913766722218,45.06543435147487)" fill="#ffffff"><path d="M1.14 7.76 l9.1 0 l0 2.78 l-6.1 0 l0 1.96 l4.9 0 l0 2.78 l-4.9 0 l0 4.72 l-3 0 l0 -12.24 z M16.3035 7.76 l3 0 l0 12.24 l-3 0 l0 -12.24 z M25.167 7.76 l10.2 0 l0 2.78 l-3.6 0 l0 9.46 l-3 0 l0 -9.46 l-3.6 0 l0 -2.78 z M49.1105 7.76 l3 0 l0 12.24 l-3 0 l-4.8 -7.16 l0 7.16 l-3 0 l0 -12.24 l3 0 l4.8 7.16 l0 -7.16 z M58.794 7.76 l9.1 0 l0 2.78 l-6.1 0 l0 1.96 l4.9 0 l0 2.78 l-4.9 0 l0 1.94 l6.1 0 l0 2.78 l-9.1 0 l0 -12.24 z M73.3775 19.7 l0 -2.82 c0.24 0.06 0.54 0.12 0.88 0.16 c0.34 0.06 0.7 0.1 1.08 0.12 s0.76 0.04 1.16 0.06 s0.78 0.04 1.12 0.04 c0.94 0 1.6 -0.06 2 -0.16 c0.38 -0.1 0.58 -0.28 0.58 -0.56 c0 -0.24 -0.18 -0.42 -0.36 -0.56 c-0.66 -0.44 -1.44 -0.62 -2.22 -0.8 c-2.2 -0.44 -4.22 -1.32 -4.22 -3.84 c0 -2.98 2.82 -3.68 5.24 -3.68 c1.34 0 2.7 0.14 4 0.46 l0 2.82 c-0.2 -0.06 -0.46 -0.1 -0.78 -0.16 c-0.34 -0.04 -0.68 -0.08 -1.06 -0.12 c-0.78 -0.08 -1.52 -0.12 -2.3 -0.12 c-0.44 0 -1.36 0 -1.78 0.16 c-0.28 0.1 -0.46 0.22 -0.46 0.54 c0 0.16 0.04 0.3 0.12 0.42 c0.08 0.14 0.22 0.24 0.4 0.34 c0.54 0.3 1.24 0.48 1.84 0.62 c0.5 0.12 1 0.26 1.52 0.4 c1.76 0.48 2.92 1.46 2.92 3.34 c0 3.1 -3.08 3.76 -5.56 3.76 c-1.36 0 -2.78 -0.1 -4.12 -0.42 z M88.501 19.7 l0 -2.82 c0.24 0.06 0.54 0.12 0.88 0.16 c0.34 0.06 0.7 0.1 1.08 0.12 s0.76 0.04 1.16 0.06 s0.78 0.04 1.12 0.04 c0.94 0 1.6 -0.06 2 -0.16 c0.38 -0.1 0.58 -0.28 0.58 -0.56 c0 -0.24 -0.18 -0.42 -0.36 -0.56 c-0.66 -0.44 -1.44 -0.62 -2.22 -0.8 c-2.2 -0.44 -4.22 -1.32 -4.22 -3.84 c0 -2.98 2.82 -3.68 5.24 -3.68 c1.34 0 2.7 0.14 4 0.46 l0 2.82 c-0.2 -0.06 -0.46 -0.1 -0.78 -0.16 c-0.34 -0.04 -0.68 -0.08 -1.06 -0.12 c-0.78 -0.08 -1.52 -0.12 -2.3 -0.12 c-0.44 0 -1.36 0 -1.78 0.16 c-0.28 0.1 -0.46 0.22 -0.46 0.54 c0 0.16 0.04 0.3 0.12 0.42 c0.08 0.14 0.22 0.24 0.4 0.34 c0.54 0.3 1.24 0.48 1.84 0.62 c0.5 0.12 1 0.26 1.52 0.4 c1.76 0.48 2.92 1.46 2.92 3.34 c0 3.1 -3.08 3.76 -5.56 3.76 c-1.36 0 -2.78 -0.1 -4.12 -0.42 z M112.988 7.76 l3 0 l0 12.24 l-3 0 l0 -12.24 z M130.4315 7.76 l3 0 l0 12.24 l-3 0 l-4.8 -7.16 l0 7.16 l-3 0 l0 -12.24 l3 0 l4.8 7.16 l0 -7.16 z M139.395 7.76 l10.2 0 l0 2.78 l-3.6 0 l0 9.46 l-3 0 l0 -9.46 l-3.6 0 l0 -2.78 z M155.5385 7.76 l9.1 0 l0 2.78 l-6.1 0 l0 1.96 l4.9 0 l0 2.78 l-4.9 0 l0 1.94 l6.1 0 l0 2.78 l-9.1 0 l0 -12.24 z M179.822 17.22 l0 2.78 l-9.1 0 l0 -12.24 l3 0 l0 9.46 l6.1 0 z M194.8255 17.22 l0 2.78 l-9.1 0 l0 -12.24 l3 0 l0 9.46 l6.1 0 z M200.709 7.76 l3 0 l0 12.24 l-3 0 l0 -12.24 z M221.1725 12.5 l0 6.8 c-1.42 0.54 -3.2 0.84 -4.72 0.84 c-3.9 0 -6.52 -2.34 -6.52 -6.2 c0 -4.22 3.14 -6.28 6.98 -6.28 c0.26 0 0.54 0 0.86 0.02 c0.3 0.02 0.62 0.06 0.96 0.08 c0.62 0.08 1.24 0.16 1.84 0.34 l0 3.06 c-0.22 -0.1 -0.46 -0.18 -0.74 -0.26 c-0.3 -0.06 -0.6 -0.12 -0.92 -0.18 c-0.64 -0.12 -1.32 -0.16 -1.98 -0.16 c-2.54 0 -4 0.78 -4 3.38 c0 2.54 1.34 3.3 3.62 3.3 c0.24 0 0.5 -0.02 0.78 -0.04 c0.26 -0.02 0.54 -0.04 0.84 -0.06 l0 -1.86 l-2.6 0 l0 -2.78 l5.6 0 z M227.456 7.76 l9.1 0 l0 2.78 l-6.1 0 l0 1.96 l4.9 0 l0 2.78 l-4.9 0 l0 1.94 l6.1 0 l0 2.78 l-9.1 0 l0 -12.24 z M250.4395 7.76 l3 0 l0 12.24 l-3 0 l-4.8 -7.16 l0 7.16 l-3 0 l0 -12.24 l3 0 l4.8 7.16 l0 -7.16 z M269.743 16.58 l0 3.08 c-1.24 0.34 -2.48 0.48 -3.76 0.48 c-3.76 0 -6.28 -2.58 -6.28 -6.24 c0 -3.76 2.62 -6.24 6.26 -6.24 c1.26 0 2.58 0.1 3.78 0.48 l0 3.08 c-0.98 -0.48 -2.52 -0.66 -3.6 -0.66 c-2.44 0 -3.44 1 -3.44 3.32 c0 2.46 1.18 3.36 3.46 3.36 c1.02 0 2.68 -0.16 3.58 -0.66 z M275.8665 7.76 l9.1 0 l0 2.78 l-6.1 0 l0 1.96 l4.9 0 l0 2.78 l-4.9 0 l0 1.94 l6.1 0 l0 2.78 l-9.1 0 l0 -12.24 z"></path></g>
			</g>
		</svg>
	