
        <svg xmlns="http://www.w3.org/2000/svg" xmlns:xlink="http://www.w3.org/1999/xlink" version="1.1" width="3171.4285714285716" 
        height="659.3771545672055" viewBox="0 0 3171.4285714285716 659.3771545672055">
			
			<g transform="scale(8.571428571428571) translate(10, 10)">
				<defs id="SvgjsDefs1191"></defs><g id="SvgjsG1192" featureKey="qafomr-0" transform="matrix(2.3897306260499143,0,0,2.3897306260499143,-2.1985022197440327,-12.235420531892595)" fill="#fe1817"><path d="M16.36 12 c1.10666 -0.70666 1.66 -1.70666 1.66 -3 c0 -0.97334 -0.34666 -1.81 -1.04 -2.51 s-1.52668 -1.05 -2.50002 -1.05 l-13.56 0 l0 13.12 l13.56 0 c0.97334 0 1.80668 -0.35 2.50002 -1.05 s1.04 -1.53666 1.04 -2.51 c0 -1.29334 -0.55334 -2.29334 -1.66 -3 z M14.48 6.56 c0.66666 0 1.23666 0.24 1.71 0.72 s0.71 1.05334 0.71 1.72 s-0.23666 1.24 -0.71 1.72 s-1.04334 0.72 -1.71 0.72 l-12.46 0 l0 -4.88 l12.46 0 z M14.48 17.44 l-12.46 0 l0 -4.88 l12.46 0 c0.66666 0 1.23666 0.24 1.71 0.72 s0.71 1.05334 0.71 1.72 s-0.23666 1.24 -0.71 1.72 s-1.04334 0.72 -1.71 0.72 z M28.12 5.22 c-2.42666 0 -4.50664 0.66 -6.23998 1.98 c-1.77334 1.34666 -2.66 2.98666 -2.66 4.92 s0.88666 3.57334 2.66 4.92 c1.72 1.30666 3.8 1.96 6.24 1.96 s4.51334 -0.65334 6.22 -1.96 c1.77334 -1.36 2.66 -3 2.66 -4.92 s-0.88666 -3.56 -2.66 -4.92 c-1.73334 -1.32 -3.80668 -1.98 -6.22002 -1.98 z M35.90002 12.12 c0 1.58666 -0.76 2.94332 -2.28 4.06998 s-3.35334 1.69 -5.5 1.69 s-3.98 -0.56334 -5.5 -1.69 s-2.28 -2.48332 -2.28 -4.06998 c0 -1.6 0.76 -2.96334 2.28 -4.09 s3.35334 -1.69 5.5 -1.69 s3.98 0.56334 5.5 1.69 s2.28 2.49 2.28 4.09 z M51.02 5.82 c-0.72 -0.25334 -1.44666 -0.38 -2.18 -0.38 l-10.56 0 l0 13.12 l10.56 0 c0.73334 0 1.46 -0.12666 2.18 -0.38 c1.30666 -0.45334 2.36332 -1.25 3.16998 -2.39 s1.21 -2.40334 1.21 -3.79 s-0.40334 -2.65 -1.21 -3.79 s-1.86332 -1.93666 -3.16998 -2.39 z M50.66 17.14 c-0.56 0.2 -1.16666 0.300078 -1.82 0.300078 l-9.44 0 l0 -10.88 l9.44 0 c0.65334 0 1.26 0.1 1.82 0.3 c1.08 0.38666 1.95334 1.05332 2.62 1.99998 s1 1.99332 1 3.13998 s-0.33334 2.19332 -1 3.13998 s-1.54 1.61332 -2.62 1.99998 z M73.08 5.56 c-0.14666 0 -0.27334 0.053359 -0.38 0.16002 l0 0 l-7.62 7.6 l-7.6 -7.6 c-0.10666 -0.10666 -0.24 -0.16 -0.4 -0.16 c-0.36 0 -0.54 0.18666 -0.54 0.56 c0 0.14666 0.05334 0.27332 0.16 0.37998 l7.82 7.84 l0 3.78 c0 0.36 0.18666 0.54 0.56 0.54 s0.56 -0.18 0.56 -0.54 l0 -3.78 l7.84 -7.84 c0.10666 -0.10666 0.16 -0.24 0.16 -0.4 c0 -0.36 -0.18666 -0.54 -0.56 -0.54 z M91.04 8.14 c-0.81334 -0.94666 -1.87334 -1.68666 -3.18 -2.22 s-2.7 -0.8 -4.18 -0.8 c-2.44 0 -4.52 0.65334 -6.24 1.96 c-1.77334 1.34666 -2.66 2.98666 -2.66 4.92 s0.88666 3.57334 2.66 4.92 c1.72 1.30666 3.8 1.96 6.24 1.96 c1.48 0 2.87334 -0.26666 4.18 -0.8 s2.36666 -1.27334 3.18 -2.22 l0 0 c0.24 -0.29334 0.22666 -0.55334 -0.04 -0.78 c-0.10666 -0.09334 -0.23332 -0.14 -0.37998 -0.14 c-0.16 0 -0.29334 0.06 -0.4 0.18 l0 0 c-0.73334 0.82666 -1.67668 1.47666 -2.83002 1.95 s-2.39 0.71 -3.71 0.71 c-2.14666 0 -3.98 -0.56666 -5.5 -1.7 s-2.28 -2.49334 -2.28 -4.08 s0.76 -2.94666 2.28 -4.08 s3.35334 -1.7 5.5 -1.7 c1.32 0 2.55666 0.23666 3.71 0.71 s2.09668 1.12334 2.83002 1.95 l0 0 c0.10666 0.12 0.24 0.18 0.4 0.18 c0.14666 0 0.27332 -0.04666 0.37998 -0.14 c0.26666 -0.22666 0.28 -0.48666 0.04 -0.78 z M101.62 5.22 c-2.42666 0 -4.50664 0.66 -6.23998 1.98 c-1.77334 1.34666 -2.66 2.98666 -2.66 4.92 s0.88666 3.57334 2.66 4.92 c1.72 1.30666 3.8 1.96 6.24 1.96 s4.51334 -0.65334 6.22 -1.96 c1.77334 -1.36 2.66 -3 2.66 -4.92 s-0.88666 -3.56 -2.66 -4.92 c-1.73334 -1.32 -3.80668 -1.98 -6.22002 -1.98 z M109.40002 12.12 c0 1.58666 -0.76 2.94332 -2.28 4.06998 s-3.35334 1.69 -5.5 1.69 s-3.98 -0.56334 -5.5 -1.69 s-2.28 -2.48332 -2.28 -4.06998 c0 -1.6 0.76 -2.96334 2.28 -4.09 s3.35334 -1.69 5.5 -1.69 s3.98 0.56334 5.5 1.69 s2.28 2.49 2.28 4.09 z M124.52 5.82 c-0.72 -0.25334 -1.44666 -0.38 -2.18 -0.38 l-10.56 0 l0 13.12 l10.56 0 c0.73334 0 1.46 -0.12666 2.18 -0.38 c1.30666 -0.45334 2.36332 -1.25 3.16998 -2.39 s1.21 -2.40334 1.21 -3.79 s-0.40334 -2.65 -1.21 -3.79 s-1.86332 -1.93666 -3.16998 -2.39 z M124.16 17.14 c-0.56 0.2 -1.16666 0.300078 -1.82 0.300078 l-9.44 0 l0 -10.88 l9.44 0 c0.65334 0 1.26 0.1 1.82 0.3 c1.08 0.38666 1.95334 1.05332 2.62 1.99998 s1 1.99332 1 3.13998 s-0.33334 2.19332 -1 3.13998 s-1.54 1.61332 -2.62 1.99998 z M146.82 12.56 c0.37334 0 0.56 -0.18666 0.56 -0.56 s-0.18666 -0.56 -0.56 -0.56 l-15.44 0 l0 -4.88 l15.44 0 c0.37334 0 0.56 -0.18666 0.56 -0.56 s-0.18666 -0.56 -0.56 -0.56 l-16.56 0 l0 13.12 l16.56 0 c0.37334 0 0.56 -0.18666 0.56 -0.56 s-0.18666 -0.56 -0.56 -0.56 l-15.44 0 l0 -4.88 l15.44 0 z"></path></g><g id="SvgjsG1193" featureKey="sloganFeature-0" transform="matrix(1.0358441645576235,0,0,1.0358441645576235,24.81913766722218,36.06543435147487)" fill="#ffffff"><path d="M1.14 7.76 l9.1 0 l0 2.78 l-6.1 0 l0 1.96 l4.9 0 l0 2.78 l-4.9 0 l0 4.72 l-3 0 l0 -12.24 z M16.3035 7.76 l3 0 l0 12.24 l-3 0 l0 -12.24 z M25.167 7.76 l10.2 0 l0 2.78 l-3.6 0 l0 9.46 l-3 0 l0 -9.46 l-3.6 0 l0 -2.78 z M49.1105 7.76 l3 0 l0 12.24 l-3 0 l-4.8 -7.16 l0 7.16 l-3 0 l0 -12.24 l3 0 l4.8 7.16 l0 -7.16 z M58.794 7.76 l9.1 0 l0 2.78 l-6.1 0 l0 1.96 l4.9 0 l0 2.78 l-4.9 0 l0 1.94 l6.1 0 l0 2.78 l-9.1 0 l0 -12.24 z M73.3775 19.7 l0 -2.82 c0.24 0.06 0.54 0.12 0.88 0.16 c0.34 0.06 0.7 0.1 1.08 0.12 s0.76 0.04 1.16 0.06 s0.78 0.04 1.12 0.04 c0.94 0 1.6 -0.06 2 -0.16 c0.38 -0.1 0.58 -0.28 0.58 -0.56 c0 -0.24 -0.18 -0.42 -0.36 -0.56 c-0.66 -0.44 -1.44 -0.62 -2.22 -0.8 c-2.2 -0.44 -4.22 -1.32 -4.22 -3.84 c0 -2.98 2.82 -3.68 5.24 -3.68 c1.34 0 2.7 0.14 4 0.46 l0 2.82 c-0.2 -0.06 -0.46 -0.1 -0.78 -0.16 c-0.34 -0.04 -0.68 -0.08 -1.06 -0.12 c-0.78 -0.08 -1.52 -0.12 -2.3 -0.12 c-0.44 0 -1.36 0 -1.78 0.16 c-0.28 0.1 -0.46 0.22 -0.46 0.54 c0 0.16 0.04 0.3 0.12 0.42 c0.08 0.14 0.22 0.24 0.4 0.34 c0.54 0.3 1.24 0.48 1.84 0.62 c0.5 0.12 1 0.26 1.52 0.4 c1.76 0.48 2.92 1.46 2.92 3.34 c0 3.1 -3.08 3.76 -5.56 3.76 c-1.36 0 -2.78 -0.1 -4.12 -0.42 z M88.501 19.7 l0 -2.82 c0.24 0.06 0.54 0.12 0.88 0.16 c0.34 0.06 0.7 0.1 1.08 0.12 s0.76 0.04 1.16 0.06 s0.78 0.04 1.12 0.04 c0.94 0 1.6 -0.06 2 -0.16 c0.38 -0.1 0.58 -0.28 0.58 -0.56 c0 -0.24 -0.18 -0.42 -0.36 -0.56 c-0.66 -0.44 -1.44 -0.62 -2.22 -0.8 c-2.2 -0.44 -4.22 -1.32 -4.22 -3.84 c0 -2.98 2.82 -3.68 5.24 -3.68 c1.34 0 2.7 0.14 4 0.46 l0 2.82 c-0.2 -0.06 -0.46 -0.1 -0.78 -0.16 c-0.34 -0.04 -0.68 -0.08 -1.06 -0.12 c-0.78 -0.08 -1.52 -0.12 -2.3 -0.12 c-0.44 0 -1.36 0 -1.78 0.16 c-0.28 0.1 -0.46 0.22 -0.46 0.54 c0 0.16 0.04 0.3 0.12 0.42 c0.08 0.14 0.22 0.24 0.4 0.34 c0.54 0.3 1.24 0.48 1.84 0.62 c0.5 0.12 1 0.26 1.52 0.4 c1.76 0.48 2.92 1.46 2.92 3.34 c0 3.1 -3.08 3.76 -5.56 3.76 c-1.36 0 -2.78 -0.1 -4.12 -0.42 z M112.988 7.76 l3 0 l0 12.24 l-3 0 l0 -12.24 z M130.4315 7.76 l3 0 l0 12.24 l-3 0 l-4.8 -7.16 l0 7.16 l-3 0 l0 -12.24 l3 0 l4.8 7.16 l0 -7.16 z M139.395 7.76 l10.2 0 l0 2.78 l-3.6 0 l0 9.46 l-3 0 l0 -9.46 l-3.6 0 l0 -2.78 z M155.5385 7.76 l9.1 0 l0 2.78 l-6.1 0 l0 1.96 l4.9 0 l0 2.78 l-4.9 0 l0 1.94 l6.1 0 l0 2.78 l-9.1 0 l0 -12.24 z M179.822 17.22 l0 2.78 l-9.1 0 l0 -12.24 l3 0 l0 9.46 l6.1 0 z M194.8255 17.22 l0 2.78 l-9.1 0 l0 -12.24 l3 0 l0 9.46 l6.1 0 z M200.709 7.76 l3 0 l0 12.24 l-3 0 l0 -12.24 z M221.1725 12.5 l0 6.8 c-1.42 0.54 -3.2 0.84 -4.72 0.84 c-3.9 0 -6.52 -2.34 -6.52 -6.2 c0 -4.22 3.14 -6.28 6.98 -6.28 c0.26 0 0.54 0 0.86 0.02 c0.3 0.02 0.62 0.06 0.96 0.08 c0.62 0.08 1.24 0.16 1.84 0.34 l0 3.06 c-0.22 -0.1 -0.46 -0.18 -0.74 -0.26 c-0.3 -0.06 -0.6 -0.12 -0.92 -0.18 c-0.64 -0.12 -1.32 -0.16 -1.98 -0.16 c-2.54 0 -4 0.78 -4 3.38 c0 2.54 1.34 3.3 3.62 3.3 c0.24 0 0.5 -0.02 0.78 -0.04 c0.26 -0.02 0.54 -0.04 0.84 -0.06 l0 -1.86 l-2.6 0 l0 -2.78 l5.6 0 z M227.456 7.76 l9.1 0 l0 2.78 l-6.1 0 l0 1.96 l4.9 0 l0 2.78 l-4.9 0 l0 1.94 l6.1 0 l0 2.78 l-9.1 0 l0 -12.24 z M250.4395 7.76 l3 0 l0 12.24 l-3 0 l-4.8 -7.16 l0 7.16 l-3 0 l0 -12.24 l3 0 l4.8 7.16 l0 -7.16 z M269.743 16.58 l0 3.08 c-1.24 0.34 -2.48 0.48 -3.76 0.48 c-3.76 0 -6.28 -2.58 -6.28 -6.24 c0 -3.76 2.62 -6.24 6.26 -6.24 c1.26 0 2.58 0.1 3.78 0.48 l0 3.08 c-0.98 -0.48 -2.52 -0.66 -3.6 -0.66 c-2.44 0 -3.44 1 -3.44 3.32 c0 2.46 1.18 3.36 3.46 3.36 c1.02 0 2.68 -0.16 3.58 -0.66 z M275.8665 7.76 l9.1 0 l0 2.78 l-6.1 0 l0 1.96 l4.9 0 l0 2.78 l-4.9 0 l0 1.94 l6.1 0 l0 2.78 l-9.1 0 l0 -12.24 z"></path></g>
			</g>
		</svg>
	