
        <svg xmlns="http://www.w3.org/2000/svg" xmlns:xlink="http://www.w3.org/1999/xlink" version="1.1" width="3162.1378171445735" 
        height="1173.9626945533678" viewBox="0 -81.06890857228646 3162.1378171445735 1173.9626945533678">
			
			<g transform="scale(8.106890857228645) translate(10, 10)">
				<defs id="SvgjsDefs19090"><linearGradient id="SvgjsLinearGradient19097"><stop id="SvgjsStop19098" stop-color="#7d141d" offset="0"></stop><stop id="SvgjsStop19099" stop-color="#ff1e27" offset="1"></stop></linearGradient><linearGradient id="SvgjsLinearGradient19100"><stop id="SvgjsStop19101" stop-color="#7d141d" offset="0"></stop><stop id="SvgjsStop19102" stop-color="#ff1e27" offset="1"></stop></linearGradient><linearGradient id="SvgjsLinearGradient19103"><stop id="SvgjsStop19104" stop-color="#616161" offset="0"></stop><stop id="SvgjsStop19105" stop-color="#e6e7e8" offset="0.5"></stop><stop id="SvgjsStop19106" stop-color="#616161" offset="1"></stop></linearGradient></defs><g id="SvgjsG19091" featureKey="Wg4LIr-0" transform="matrix(8.368110068777066,0,0,8.368110068777066,-2.5104346167234497,-62.55172899739351)" fill="url(#SvgjsLinearGradient19097)"><path d="M5.24 14.7 l-2.48 0 l3.92 -8.42 l0 0.02 l0 -0.02 l3.92 8.42 l-2.46 0 l0.92 2.04 l2.5 0 l1.52 3.26 l-2.56 0 l-1.46 -3.26 l-4.76 0 l-1.44 3.26 l-2.56 0 l1.5 -3.26 l2.5 0 z M5.24 14.7 l2.9 0 l-1.46 -3.2 z"></path></g><g id="SvgjsG19092" featureKey="qafomr-0" transform="matrix(2.9468422122114686,0,0,2.9468422122114686,125.82126309755087,8.318948131895056)" fill="url(#SvgjsLinearGradient19100)"><path d="M0.4 20 l1.14 -5.6 l4.28 0 l-0.86 -4.28 l-0.68 3.44 l-2.58 0 l1.52 -7.56 l3.48 0 l2.2 10.92 l-5.3 0 l-0.62 3.08 l-2.58 0 z M6.96 20 l-0.46 -2.24 l2.58 0 l0.44 2.24 l-2.56 0 z M16.2 20 l-5.48 -14 l2.72 0 l2.92 7.48 l0 -7.48 l2.52 0 l0 14 l-2.68 0 z M10.76 20 l0 -11.6 l2.52 6.42 l0 5.18 l-2.52 0 z M20.08 20 l1.14 -5.6 l4.28 0 l-0.86 -4.28 l-0.68 3.44 l-2.58 0 l1.52 -7.56 l3.48 0 l2.2 10.92 l-5.3 0 l-0.62 3.08 l-2.58 0 z M26.64 20 l-0.46 -2.24 l2.58 0 l0.44 2.24 l-2.56 0 z M33.06 20 l0 -10.64 l2.52 0 l0 10.64 l-2.52 0 z M30.4 8.52 l0 -2.52 l7.84 0 l0 2.52 l-7.84 0 z M44.4 20 l0 -2.52 l0.8 0 l0.38 -0.38 l0 -8.2 l-0.38 -0.38 l-0.8 0 l0 -2.52 l1.84 0 l1.86 1.86 l0 10.28 l-1.86 1.86 l-1.84 0 z M41.7 20 l-1.86 -1.86 l0 -10.28 l1.86 -1.86 l1.84 0 l0 2.52 l-0.8 0 l-0.38 0.38 l0 8.2 l0.38 0.38 l0.8 0 l0 2.52 l-1.84 0 z M53.5 15.66 l-3.8 -9.66 l2.7 0 l2.1 5.3 l2.08 -5.3 l2.7 0 l-3.8 9.66 l-1.98 0 z M49.74 20 l0 -11.62 l2.52 6.42 l0 5.2 l-2.52 0 z M56.74 20 l0 -5.2 l2.52 -6.42 l0 11.62 l-2.52 0 z M60.88 12.58 l0 -6.58 l2.52 0 l0 6.58 l-2.52 0 z M60.88 20 l0 -6.58 l2.52 0 l0 6.58 l-2.52 0 z M69.2 20 l0 -2.52 l0.46 0 l0.38 -0.38 l0 -7.74 l2.52 0 l0 8.78 l-1.86 1.86 l-1.5 0 z M66.86 20 l-1.86 -1.86 l0 -2.62 l2.52 0 l0 1.58 l0.38 0.38 l0.46 0 l0 2.52 l-1.5 0 z M68.36 8.52 l0 -2.52 l4.2 0 l0 2.52 l-4.2 0 z M73.76 20 l1.14 -5.6 l4.28 0 l-0.86 -4.28 l-0.68 3.44 l-2.58 0 l1.52 -7.56 l3.48 0 l2.2 10.92 l-5.3 0 l-0.62 3.08 l-2.58 0 z M80.32 20 l-0.46 -2.24 l2.58 0 l0.44 2.24 l-2.56 0 z"></path></g><g id="SvgjsG19093" featureKey="sloganFeature-0" transform="matrix(0.9606713211628706,0,0,0.9606713211628706,134.2314629888781,72.23597298919034)" fill="url(#SvgjsLinearGradient19103)"><path d="M0.8 20 l0 -14 l2.52 0 l0 14 l-2.52 0 z M4.16 14.26 l0 -2.52 l2.38 0 l0 2.52 l-2.38 0 z M4.16 8.52 l0 -2.52 l3.5 0 l0 2.52 l-3.5 0 z M12.055 12.58 l0 -6.58 l2.52 0 l0 6.58 l-2.52 0 z M12.055 20 l0 -6.58 l2.52 0 l0 6.58 l-2.52 0 z M21.63 20 l0 -10.64 l2.52 0 l0 10.64 l-2.52 0 z M18.97 8.52 l0 -2.52 l7.84 0 l0 2.52 l-7.84 0 z M36.685 20 l-5.48 -14 l2.72 0 l2.92 7.48 l0 -7.48 l2.52 0 l0 14 l-2.68 0 z M31.245 20 l0 -11.6 l2.52 6.42 l0 5.18 l-2.52 0 z M43.76 14.26 l0 -8.26 l2.52 0 l0 8.26 l-2.52 0 z M43.76 20 l0 -4.9 l2.52 0 l0 4.9 l-2.52 0 z M47.12 20 l0 -2.52 l3.5 0 l0 2.52 l-3.5 0 z M47.12 14.26 l0 -2.52 l2.38 0 l0 2.52 l-2.38 0 z M47.12 8.52 l0 -2.52 l3.5 0 l0 2.52 l-3.5 0 z M56.875 14.26 l-1.86 -1.86 l0 -4.54 l1.86 -1.86 l1.64 0 l0 2.52 l-0.6 0 l-0.38 0.38 l0 2.46 l0.38 0.38 l3.08 0 l1.86 1.86 l0 0.66 l-5.98 0 z M56.875 20 l-1.86 -1.86 l0 -2.62 l2.52 0 l0 1.58 l0.38 0.38 l2.04 0 l0.38 -0.38 l0 -2 l2.52 0 l0 3.04 l-1.86 1.86 l-4.12 0 z M60.335 10.48 l0 -1.58 l-0.38 -0.38 l-0.6 0 l0 -2.52 l1.64 0 l1.86 1.86 l0 2.62 l-2.52 0 z M69.11 14.26 l-1.86 -1.86 l0 -4.54 l1.86 -1.86 l1.64 0 l0 2.52 l-0.6 0 l-0.38 0.38 l0 2.46 l0.38 0.38 l3.08 0 l1.86 1.86 l0 0.66 l-5.98 0 z M69.11 20 l-1.86 -1.86 l0 -2.62 l2.52 0 l0 1.58 l0.38 0.38 l2.04 0 l0.38 -0.38 l0 -2 l2.52 0 l0 3.04 l-1.86 1.86 l-4.12 0 z M72.57 10.48 l0 -1.58 l-0.38 -0.38 l-0.6 0 l0 -2.52 l1.64 0 l1.86 1.86 l0 2.62 l-2.52 0 z M86.08 12.58 l0 -6.58 l2.52 0 l0 6.58 l-2.52 0 z M86.08 20 l0 -6.58 l2.52 0 l0 6.58 l-2.52 0 z M98.475 20 l-5.48 -14 l2.72 0 l2.92 7.48 l0 -7.48 l2.52 0 l0 14 l-2.68 0 z M93.035 20 l0 -11.6 l2.52 6.42 l0 5.18 l-2.52 0 z M108.21 20 l0 -10.64 l2.52 0 l0 10.64 l-2.52 0 z M105.55 8.52 l0 -2.52 l7.84 0 l0 2.52 l-7.84 0 z M117.785 14.26 l0 -8.26 l2.52 0 l0 8.26 l-2.52 0 z M117.785 20 l0 -4.9 l2.52 0 l0 4.9 l-2.52 0 z M121.145 20 l0 -2.52 l3.5 0 l0 2.52 l-3.5 0 z M121.145 14.26 l0 -2.52 l2.38 0 l0 2.52 l-2.38 0 z M121.145 8.52 l0 -2.52 l3.5 0 l0 2.52 l-3.5 0 z M129.04 16.64 l0 -10.64 l2.52 0 l0 10.64 l-2.52 0 z M129.04 20 l0 -2.52 l2.52 0 l0 2.52 l-2.52 0 z M132.4 20 l0 -2.52 l3.08 0 l0 2.52 l-3.08 0 z M139.875 16.64 l0 -10.64 l2.52 0 l0 10.64 l-2.52 0 z M139.875 20 l0 -2.52 l2.52 0 l0 2.52 l-2.52 0 z M143.235 20 l0 -2.52 l3.08 0 l0 2.52 l-3.08 0 z M150.71 12.58 l0 -6.58 l2.52 0 l0 6.58 l-2.52 0 z M150.71 20 l0 -6.58 l2.52 0 l0 6.58 l-2.52 0 z M162.105 20 l0 -2.52 l0.74 0 l0.38 -0.38 l0 -2.84 l-1.26 0 l0 -2.52 l3.78 0 l0 6.4 l-1.86 1.86 l-1.78 0 z M159.485 20 l-1.86 -1.86 l0 -3.04 l2.52 0 l0 2 l0.38 0.38 l0.74 0 l0 2.52 l-1.78 0 z M157.625 14.26 l0 -6.4 l1.86 -1.86 l1.78 0 l0 2.52 l-0.74 0 l-0.38 0.38 l0 5.36 l-2.52 0 z M163.225 10.48 l0 -1.58 l-0.38 -0.38 l-0.74 0 l0 -2.52 l1.78 0 l1.86 1.86 l0 2.62 l-2.52 0 z M170.14 14.26 l0 -8.26 l2.52 0 l0 8.26 l-2.52 0 z M170.14 20 l0 -4.9 l2.52 0 l0 4.9 l-2.52 0 z M173.5 20 l0 -2.52 l3.5 0 l0 2.52 l-3.5 0 z M173.5 14.26 l0 -2.52 l2.38 0 l0 2.52 l-2.38 0 z M173.5 8.52 l0 -2.52 l3.5 0 l0 2.52 l-3.5 0 z M186.875 20 l-5.48 -14 l2.72 0 l2.92 7.48 l0 -7.48 l2.52 0 l0 14 l-2.68 0 z M181.435 20 l0 -11.6 l2.52 6.42 l0 5.18 l-2.52 0 z M195.81 20 l-1.86 -1.86 l0 -10.28 l1.86 -1.86 l1.78 0 l0 2.52 l-0.74 0 l-0.38 0.38 l0 8.2 l0.38 0.38 l0.74 0 l0 2.52 l-1.78 0 z M198.43 20 l0 -2.52 l0.74 0 l0.38 -0.38 l0 -1.58 l2.52 0 l0 2.62 l-1.86 1.86 l-1.78 0 z M199.55 10.48 l0 -1.58 l-0.38 -0.38 l-0.74 0 l0 -2.52 l1.78 0 l1.86 1.86 l0 2.62 l-2.52 0 z M206.465 14.26 l0 -8.26 l2.52 0 l0 8.26 l-2.52 0 z M206.465 20 l0 -4.9 l2.52 0 l0 4.9 l-2.52 0 z M209.825 20 l0 -2.52 l3.5 0 l0 2.52 l-3.5 0 z M209.825 14.26 l0 -2.52 l2.38 0 l0 2.52 l-2.38 0 z M209.825 8.52 l0 -2.52 l3.5 0 l0 2.52 l-3.5 0 z"></path></g>
			</g>
		</svg>
	