
        <svg xmlns="http://www.w3.org/2000/svg" xmlns:xlink="http://www.w3.org/1999/xlink" version="1.1" width="3171.4285714285716" 
        height="2519.099945008864" viewBox="0 0 3171.4285714285716 2519.099945008864">
			
			<g transform="scale(8.571428571428571) translate(10, 10)">
				<defs id="SvgjsDefs7513"><linearGradient id="SvgjsLinearGradient7520"><stop id="SvgjsStop7521" stop-color="#616161" offset="0"></stop><stop id="SvgjsStop7522" stop-color="#e6e7e8" offset="0.5"></stop><stop id="SvgjsStop7523" stop-color="#616161" offset="1"></stop></linearGradient><linearGradient id="SvgjsLinearGradient7524"><stop id="SvgjsStop7525" stop-color="#616161" offset="0"></stop><stop id="SvgjsStop7526" stop-color="#e6e7e8" offset="0.5"></stop><stop id="SvgjsStop7527" stop-color="#616161" offset="1"></stop></linearGradient><linearGradient id="SvgjsLinearGradient7528"><stop id="SvgjsStop7529" stop-color="#616161" offset="0"></stop><stop id="SvgjsStop7530" stop-color="#e6e7e8" offset="0.5"></stop><stop id="SvgjsStop7531" stop-color="#616161" offset="1"></stop></linearGradient></defs><g id="SvgjsG7514" featureKey="Wg4LIr-0" transform="matrix(12.050078499038975,0,0,12.050078499038975,94.38497415191823,-72.67448975624666)" fill="url(#SvgjsLinearGradient7520)"><path d="M5.24 14.7 l-2.48 0 l3.92 -8.42 l0 0.02 l0 -0.02 l3.92 8.42 l-2.46 0 l0.92 2.04 l2.5 0 l1.52 3.26 l-2.56 0 l-1.46 -3.26 l-4.76 0 l-1.44 3.26 l-2.56 0 l1.5 -3.26 l2.5 0 z M5.24 14.7 l2.9 0 l-1.46 -3.2 z"></path></g><g id="SvgjsG7515" featureKey="qafomr-0" transform="matrix(4.243452785584515,0,0,4.243452785584515,-1.6973811395267557,159.53928530992889)" fill="url(#SvgjsLinearGradient7524)"><path d="M0.4 20 l1.14 -5.6 l4.28 0 l-0.86 -4.28 l-0.68 3.44 l-2.58 0 l1.52 -7.56 l3.48 0 l2.2 10.92 l-5.3 0 l-0.62 3.08 l-2.58 0 z M6.96 20 l-0.46 -2.24 l2.58 0 l0.44 2.24 l-2.56 0 z M16.2 20 l-5.48 -14 l2.72 0 l2.92 7.48 l0 -7.48 l2.52 0 l0 14 l-2.68 0 z M10.76 20 l0 -11.6 l2.52 6.42 l0 5.18 l-2.52 0 z M20.08 20 l1.14 -5.6 l4.28 0 l-0.86 -4.28 l-0.68 3.44 l-2.58 0 l1.52 -7.56 l3.48 0 l2.2 10.92 l-5.3 0 l-0.62 3.08 l-2.58 0 z M26.64 20 l-0.46 -2.24 l2.58 0 l0.44 2.24 l-2.56 0 z M33.06 20 l0 -10.64 l2.52 0 l0 10.64 l-2.52 0 z M30.4 8.52 l0 -2.52 l7.84 0 l0 2.52 l-7.84 0 z M44.4 20 l0 -2.52 l0.8 0 l0.38 -0.38 l0 -8.2 l-0.38 -0.38 l-0.8 0 l0 -2.52 l1.84 0 l1.86 1.86 l0 10.28 l-1.86 1.86 l-1.84 0 z M41.7 20 l-1.86 -1.86 l0 -10.28 l1.86 -1.86 l1.84 0 l0 2.52 l-0.8 0 l-0.38 0.38 l0 8.2 l0.38 0.38 l0.8 0 l0 2.52 l-1.84 0 z M53.5 15.66 l-3.8 -9.66 l2.7 0 l2.1 5.3 l2.08 -5.3 l2.7 0 l-3.8 9.66 l-1.98 0 z M49.74 20 l0 -11.62 l2.52 6.42 l0 5.2 l-2.52 0 z M56.74 20 l0 -5.2 l2.52 -6.42 l0 11.62 l-2.52 0 z M60.88 12.58 l0 -6.58 l2.52 0 l0 6.58 l-2.52 0 z M60.88 20 l0 -6.58 l2.52 0 l0 6.58 l-2.52 0 z M69.2 20 l0 -2.52 l0.46 0 l0.38 -0.38 l0 -7.74 l2.52 0 l0 8.78 l-1.86 1.86 l-1.5 0 z M66.86 20 l-1.86 -1.86 l0 -2.62 l2.52 0 l0 1.58 l0.38 0.38 l0.46 0 l0 2.52 l-1.5 0 z M68.36 8.52 l0 -2.52 l4.2 0 l0 2.52 l-4.2 0 z M73.76 20 l1.14 -5.6 l4.28 0 l-0.86 -4.28 l-0.68 3.44 l-2.58 0 l1.52 -7.56 l3.48 0 l2.2 10.92 l-5.3 0 l-0.62 3.08 l-2.58 0 z M80.32 20 l-0.46 -2.24 l2.58 0 l0.44 2.24 l-2.56 0 z"></path></g><g id="SvgjsG7516" featureKey="sloganFeature-0" transform="matrix(1.3496423069463042,0,0,1.3496423069463042,24.920286218798918,246.9021474454414)" fill="url(#SvgjsLinearGradient7528)"><path d="M0.8 20 l0 -14 l2.52 0 l0 14 l-2.52 0 z M4.16 14.26 l0 -2.52 l2.38 0 l0 2.52 l-2.38 0 z M4.16 8.52 l0 -2.52 l3.5 0 l0 2.52 l-3.5 0 z M12.3345 12.58 l0 -6.58 l2.52 0 l0 6.58 l-2.52 0 z M12.3345 20 l0 -6.58 l2.52 0 l0 6.58 l-2.52 0 z M22.189 20 l0 -10.64 l2.52 0 l0 10.64 l-2.52 0 z M19.529 8.52 l0 -2.52 l7.84 0 l0 2.52 l-7.84 0 z M37.5235 20 l-5.48 -14 l2.72 0 l2.92 7.48 l0 -7.48 l2.52 0 l0 14 l-2.68 0 z M32.0835 20 l0 -11.6 l2.52 6.42 l0 5.18 l-2.52 0 z M44.878 14.26 l0 -8.26 l2.52 0 l0 8.26 l-2.52 0 z M44.878 20 l0 -4.9 l2.52 0 l0 4.9 l-2.52 0 z M48.238 20 l0 -2.52 l3.5 0 l0 2.52 l-3.5 0 z M48.238 14.26 l0 -2.52 l2.38 0 l0 2.52 l-2.38 0 z M48.238 8.52 l0 -2.52 l3.5 0 l0 2.52 l-3.5 0 z M58.2725 14.26 l-1.86 -1.86 l0 -4.54 l1.86 -1.86 l1.64 0 l0 2.52 l-0.6 0 l-0.38 0.38 l0 2.46 l0.38 0.38 l3.08 0 l1.86 1.86 l0 0.66 l-5.98 0 z M58.2725 20 l-1.86 -1.86 l0 -2.62 l2.52 0 l0 1.58 l0.38 0.38 l2.04 0 l0.38 -0.38 l0 -2 l2.52 0 l0 3.04 l-1.86 1.86 l-4.12 0 z M61.7325 10.48 l0 -1.58 l-0.38 -0.38 l-0.6 0 l0 -2.52 l1.64 0 l1.86 1.86 l0 2.62 l-2.52 0 z M70.787 14.26 l-1.86 -1.86 l0 -4.54 l1.86 -1.86 l1.64 0 l0 2.52 l-0.6 0 l-0.38 0.38 l0 2.46 l0.38 0.38 l3.08 0 l1.86 1.86 l0 0.66 l-5.98 0 z M70.787 20 l-1.86 -1.86 l0 -2.62 l2.52 0 l0 1.58 l0.38 0.38 l2.04 0 l0.38 -0.38 l0 -2 l2.52 0 l0 3.04 l-1.86 1.86 l-4.12 0 z M74.247 10.48 l0 -1.58 l-0.38 -0.38 l-0.6 0 l0 -2.52 l1.64 0 l1.86 1.86 l0 2.62 l-2.52 0 z M88.316 12.58 l0 -6.58 l2.52 0 l0 6.58 l-2.52 0 z M88.316 20 l0 -6.58 l2.52 0 l0 6.58 l-2.52 0 z M100.9905 20 l-5.48 -14 l2.72 0 l2.92 7.48 l0 -7.48 l2.52 0 l0 14 l-2.68 0 z M95.5505 20 l0 -11.6 l2.52 6.42 l0 5.18 l-2.52 0 z M111.005 20 l0 -10.64 l2.52 0 l0 10.64 l-2.52 0 z M108.345 8.52 l0 -2.52 l7.84 0 l0 2.52 l-7.84 0 z M120.8595 14.26 l0 -8.26 l2.52 0 l0 8.26 l-2.52 0 z M120.8595 20 l0 -4.9 l2.52 0 l0 4.9 l-2.52 0 z M124.2195 20 l0 -2.52 l3.5 0 l0 2.52 l-3.5 0 z M124.2195 14.26 l0 -2.52 l2.38 0 l0 2.52 l-2.38 0 z M124.2195 8.52 l0 -2.52 l3.5 0 l0 2.52 l-3.5 0 z M132.394 16.64 l0 -10.64 l2.52 0 l0 10.64 l-2.52 0 z M132.394 20 l0 -2.52 l2.52 0 l0 2.52 l-2.52 0 z M135.754 20 l0 -2.52 l3.08 0 l0 2.52 l-3.08 0 z M143.5085 16.64 l0 -10.64 l2.52 0 l0 10.64 l-2.52 0 z M143.5085 20 l0 -2.52 l2.52 0 l0 2.52 l-2.52 0 z M146.8685 20 l0 -2.52 l3.08 0 l0 2.52 l-3.08 0 z M154.623 12.58 l0 -6.58 l2.52 0 l0 6.58 l-2.52 0 z M154.623 20 l0 -6.58 l2.52 0 l0 6.58 l-2.52 0 z M166.2975 20 l0 -2.52 l0.74 0 l0.38 -0.38 l0 -2.84 l-1.26 0 l0 -2.52 l3.78 0 l0 6.4 l-1.86 1.86 l-1.78 0 z M163.6775 20 l-1.86 -1.86 l0 -3.04 l2.52 0 l0 2 l0.38 0.38 l0.74 0 l0 2.52 l-1.78 0 z M161.8175 14.26 l0 -6.4 l1.86 -1.86 l1.78 0 l0 2.52 l-0.74 0 l-0.38 0.38 l0 5.36 l-2.52 0 z M167.4175 10.48 l0 -1.58 l-0.38 -0.38 l-0.74 0 l0 -2.52 l1.78 0 l1.86 1.86 l0 2.62 l-2.52 0 z M174.612 14.26 l0 -8.26 l2.52 0 l0 8.26 l-2.52 0 z M174.612 20 l0 -4.9 l2.52 0 l0 4.9 l-2.52 0 z M177.972 20 l0 -2.52 l3.5 0 l0 2.52 l-3.5 0 z M177.972 14.26 l0 -2.52 l2.38 0 l0 2.52 l-2.38 0 z M177.972 8.52 l0 -2.52 l3.5 0 l0 2.52 l-3.5 0 z M191.6265 20 l-5.48 -14 l2.72 0 l2.92 7.48 l0 -7.48 l2.52 0 l0 14 l-2.68 0 z M186.1865 20 l0 -11.6 l2.52 6.42 l0 5.18 l-2.52 0 z M200.841 20 l-1.86 -1.86 l0 -10.28 l1.86 -1.86 l1.78 0 l0 2.52 l-0.74 0 l-0.38 0.38 l0 8.2 l0.38 0.38 l0.74 0 l0 2.52 l-1.78 0 z M203.461 20 l0 -2.52 l0.74 0 l0.38 -0.38 l0 -1.58 l2.52 0 l0 2.62 l-1.86 1.86 l-1.78 0 z M204.581 10.48 l0 -1.58 l-0.38 -0.38 l-0.74 0 l0 -2.52 l1.78 0 l1.86 1.86 l0 2.62 l-2.52 0 z M211.7755 14.26 l0 -8.26 l2.52 0 l0 8.26 l-2.52 0 z M211.7755 20 l0 -4.9 l2.52 0 l0 4.9 l-2.52 0 z M215.1355 20 l0 -2.52 l3.5 0 l0 2.52 l-3.5 0 z M215.1355 14.26 l0 -2.52 l2.38 0 l0 2.52 l-2.38 0 z M215.1355 8.52 l0 -2.52 l3.5 0 l0 2.52 l-3.5 0 z"></path></g>
			</g>
		</svg>
	